<?xml version="1.0" encoding="UTF-8"?>
<svg width="800" height="400" viewBox="0 0 800 400" xmlns="http://www.w3.org/2000/svg">
  <path d="M650 200 C650 120 580 60 500 60 L200 60 C120 60 60 120 60 200 C60 280 120 340 200 340 L500 340 C580 340 650 280 650 200 Z" fill="#0D9488" />
  <path d="M100 200 C100 140 140 100 200 100 L500 100 C560 100 600 140 600 200 C600 260 560 300 500 300 L200 300 C140 300 100 260 100 200 Z" fill="white" />
  <path d="M130 200 C130 150 160 120 210 120 L490 120 C540 120 570 150 570 200 C570 250 540 280 490 280 L210 280 C160 280 130 250 130 200 Z" fill="#0D9488" />
  <path d="M70 230 C65 220 63 210 63 200 C63 150 90 110 130 95 L85 95 C70 120 63 160 70 230 Z" fill="#B30000" />
  <path d="M630 200 C630 220 635 235 645 250 L665 250 C655 235 650 220 650 200 C650 180 655 165 665 150 L645 150 C635 165 630 180 630 200 Z" fill="#FFA500" />
  <path d="M654 240 L670 260 L686 240 L670 220 Z" fill="#FFA500" />
  
  <!-- C -->
  <path d="M150 170 Q170 150 200 150 V180 Q185 180 180 190 Q175 200 175 210 Q175 220 180 230 Q185 240 200 240 V270 Q170 270 150 250 Q130 230 130 210 Q130 190 150 170 Z" fill="white" />
  
  <!-- A -->
  <path d="M210 270 V170 Q230 150 250 150 Q270 150 290 170 V270 H265 V220 H235 V270 Z M235 195 H265 V180 Q260 175 250 175 Q240 175 235 180 Z" fill="white" />
  
  <!-- R -->
  <path d="M300 270 V150 H340 Q360 150 370 165 Q380 180 380 195 Q380 210 370 220 L380 270 H355 L347 230 H325 V270 Z M325 205 H340 Q347 205 350 200 Q353 195 353 190 Q353 185 350 180 Q347 175 340 175 H325 Z" fill="white" />
  
  <!-- G -->
  <path d="M390 170 Q410 150 440 150 Q470 150 490 170 V190 H465 V177 Q457 175 447 175 Q437 175 430 180 Q423 185 420 195 Q417 205 417 210 Q417 220 420 225 Q423 235 430 240 Q437 245 447 245 Q457 245 465 243 V230 H440 V210 H490 V255 Q470 270 440 270 Q410 270 390 250 Q370 230 370 210 Q370 190 390 170 Z" fill="white" />
  
  <!-- O -->
  <path d="M500 170 Q520 150 540 150 Q560 150 580 170 Q600 190 600 210 Q600 230 580 250 Q560 270 540 270 Q520 270 500 250 Q480 230 480 210 Q480 190 500 170 Z M520 235 Q527 245 540 245 Q553 245 560 235 Q567 225 567 210 Q567 195 560 185 Q553 175 540 175 Q527 175 520 185 Q513 195 513 210 Q513 225 520 235 Z" fill="white" />
  
  <!-- R -->
  <path d="M610 270 V150 H650 Q670 150 680 165 Q690 180 690 195 Q690 210 680 220 L690 270 H665 L657 230 H635 V270 Z M635 205 H650 Q657 205 660 200 Q663 195 663 190 Q663 185 660 180 Q657 175 650 175 H635 Z" fill="white" />
  
  <!-- O -->
  <path d="M700 170 Q720 150 740 150 Q760 150 780 170 Q800 190 800 210 Q800 230 780 250 Q760 270 740 270 Q720 270 700 250 Q680 230 680 210 Q680 190 700 170 Z M720 235 Q727 245 740 245 Q753 245 760 235 Q767 225 767 210 Q767 195 760 185 Q753 175 740 175 Q727 175 720 185 Q713 195 713 210 Q713 225 720 235 Z" fill="white" />
</svg>
